<svg xmlns="http://www.w3.org/2000/svg" viewBox="0 0 500 500"><title>Logux Logo</title><path d="M432.24 162.421c4.257 29.6 16.685 57.763 36.377 81.055 19.673 23.854 26.988 54.823 17.812 82.995-6.966 21.744-22.999 39.21-43.791 49.576a100.84 100.84 0 0 0-.082-1.608 154.285 154.285 0 0 1 .39-30.805c8.23-6.831 14.4-15.572 17.59-25.53 6.162-18.916 1.105-40.322-12.804-57.19-26.232-31.024-41.432-69.558-43.97-109.539a194.282 194.282 0 0 0 10.469 2.847c6.64 1.713 12.745 4.528 18.01 8.198zm-1.623-55.395c-3-23.888-14.726-45.32-33.788-59.168-24.19-17.574-56.12-20.216-84.981-8.533-19.647 8.091-40.448 12.31-61.862 12.31-9.522 0-18.992-.856-28.335-2.532-4.855 3.9-9.21 8.783-12.803 14.485a198.554 198.554 0 0 1-5.93 9.256c15.377 3.959 31.148 6.002 47.07 6.002 25.011 0 49.327-4.933 72.147-14.33 20.424-8.268 42.455-6.445 58.7 5.357C390 76.53 396.72 86.007 400.54 96.983a147.27 147.27 0 0 0 25.787 8.847c1.442.371 2.872.77 4.29 1.198zm-39.463 287.855c-27.747 13.61-51.363 35.255-67.616 62.374C307.056 483.402 279.69 500 249.984 500c-23.26 0-45.086-10.23-61.476-27.336 1.35-.496 2.695-1.02 4.031-1.573a156.162 156.162 0 0 1 26.414-8.11c9.363 6.288 20.056 9.809 31.033 9.809 19.91 0 38.828-11.475 50.37-29.782 21.31-35.567 53.754-63.172 91.73-78.31.088 4.315.316 8.637.685 12.96.317 5.994-.25 11.803-1.618 17.222zm-235.897 34.29c-21.054-22.369-48.375-38.54-78.877-45.98-29.65-7.864-53.74-28.75-62.819-56.666-7.073-21.768-4.348-45.268 6.52-66.002.384.499.772.995 1.164 1.489a153.611 153.611 0 0 1 17.502 25.017c-2.679 10.381-2.554 21.095.69 31.083 6.076 18.674 22.804 33.177 43.655 38.71 40.093 9.777 75.603 32.626 101.126 64.134a210.626 210.626 0 0 0-10.596 3.977c-6.042 2.499-12.267 3.903-18.362 4.237zm13.564-395.498c-23.066-4.189-46.869.462-65.757 14.184-23.993 17.43-36.368 46.874-34.381 77.67 2.651 30.944-3.593 61.731-17.694 88.783 1.989 5.674 5.02 11.202 9.03 16.314a198.354 198.354 0 0 1 7.56 9.406c21.748-34.577 31.75-75.553 28.236-116.54-1.39-21.587 7.164-41.938 23.242-53.618 9.006-6.543 19.872-10.029 31.195-10.425A151.248 151.248 0 0 0 166.455 37.3a112.335 112.335 0 0 1 2.365-3.624z"/><path fill="#f5a623" d="M344.733 70.833c21.132 22.44 48.439 38.63 78.75 45.97 29.793 7.68 53.93 28.633 62.915 56.666 7.124 21.874 4.339 45.39-6.475 66.025a112.869 112.869 0 0 0-2.57-3.236 149.734 149.734 0 0 1-16.147-23.234c2.695-10.4 2.574-21.136-.7-31.19-6.01-18.76-22.69-33.238-43.618-38.633-39.97-9.68-75.503-32.578-101.126-64.152a204.366 204.366 0 0 0 10.679-4.054c6.057-2.452 12.248-3.833 18.293-4.162zM311.47 27.322C295.097 10.198 273.252.003 249.974.003c-29.874 0-57.381 16.874-73.92 43.305-16.119 26.842-39.621 48.284-67.34 61.835-1.404 5.556-1.963 11.52-1.59 17.668.351 4.17.57 8.34.66 12.503 37.926-15.088 70.26-42.475 91.462-77.785 11.655-18.625 30.716-30.316 50.724-30.316 11.028 0 21.752 3.52 31.114 9.818a153.092 153.092 0 0 0 26.494-8.22c1.29-.522 2.586-1.019 3.887-1.49zm137.523 258.345c-14.227 27.185-20.493 58.193-17.766 89.43 1.78 30.593-10.588 59.745-34.41 77.05-18.871 13.71-42.455 18.332-65.648 14.14.665-.983 1.315-1.98 1.951-2.988a153.87 153.87 0 0 1 16.651-22.765c11.297-.393 22.063-3.868 31.055-10.4 15.913-11.562 24.453-31.618 23.25-53.273-3.555-41.18 6.493-82.333 28.348-116.926a198.072 198.072 0 0 0 6.642 8.297c4.449 5.396 7.791 11.322 9.93 17.433zM278.404 450.873a161.1 161.1 0 0 0-28.411-2.517c-21.154 0-42.053 4.228-61.785 12.242-28.568 11.816-60.9 9.146-85.14-8.465-19.094-13.871-30.83-35.35-33.815-59.209 1.396.43 2.803.833 4.222 1.21a149.97 149.97 0 0 1 25.876 8.879c3.822 10.97 10.543 20.448 19.71 27.107 16.27 11.82 38.608 13.665 58.828 5.302 23.007-9.346 47.372-14.275 72.102-14.275 16.058 0 31.828 2.033 47.082 5.967a200.295 200.295 0 0 0-6.274 9.781c-3.49 5.486-7.701 10.195-12.395 13.979zM57.254 124.094c-20.7 10.443-36.675 27.814-43.69 49.382-8.955 27.561-2.209 57.894 16.554 81.476 20.365 23.703 33.172 52.334 37.52 82.392 5.347 3.766 11.583 6.692 18.413 8.53a196.8 196.8 0 0 1 10.112 2.768c-2.508-40.407-18.059-79.508-44.901-110.826-13.193-16.698-17.791-37.546-11.819-55.93 3.195-9.821 9.338-18.489 17.516-25.315a152.822 152.822 0 0 0 .417-30.32c-.047-.72-.086-1.44-.119-2.159z"/></svg>